<svg id="Options" xmlns="http://www.w3.org/2000/svg" width="16" height="23" viewBox="0 0 16 23">
  <rect id="Rectangle_449" data-name="Rectangle 449" width="16" height="16" fill="none"/>
  <path id="Union_1" data-name="Union 1" d="M0,19.8c0-1.214.671-2.2,1.5-2.2S3,18.585,3,19.8,2.328,22,1.5,22,0,21.014,0,19.8ZM0,11C0,9.785.671,8.8,1.5,8.8S3,9.785,3,11s-.671,2.2-1.5,2.2S0,12.215,0,11ZM0,2.2C0,.985.671,0,1.5,0S3,.985,3,2.2,2.328,4.4,1.5,4.4,0,3.415,0,2.2Z" transform="translate(10.769 1)" fill="#50b2b2"/>
</svg>
